<?xml version="1.0" encoding="UTF-8" standalone="no"?>
<!DOCTYPE svg PUBLIC "-//W3C//DTD SVG 1.1//EN" "http://www.w3.org/Graphics/SVG/1.1/DTD/svg11.dtd">
<svg width="100%" height="100%" viewBox="0 0 576 512" version="1.1" xmlns="http://www.w3.org/2000/svg" xmlns:xlink="http://www.w3.org/1999/xlink" xml:space="preserve" xmlns:serif="http://www.serif.com/" style="fill-rule:evenodd;clip-rule:evenodd;stroke-linejoin:round;stroke-miterlimit:2;">
    <path d="M576,255.953c0,-59.239 -41.5,-110.105 -97.625,-123.727c-9.5,-56.865 -59,-100.232 -118.375,-100.232c-12.75,0 -25.625,2.25 -38.001,6.499c-28.374,-24.995 -64,-38.493 -101.999,-38.493c-82.25,0 -149.875,64.113 -155.625,144.973c-39.625,22.621 -64.375,64.614 -64.375,110.98c-0,70.612 57.375,127.977 128,127.977l18.5,-0c3.75,-13.123 12,-24.746 23.75,-32.744c-1,-5.124 -11.125,-10.248 -10.875,-15.248l-31.375,-0c-44.125,-0 -80,-35.868 -80,-79.985c-0,-32.494 19.375,-61.489 49.625,-73.861l15.625,-6.374l-0.875,-16.997c-0.125,-1.375 -0.125,-2.75 -0.375,-2.75c-0,-59.489 48.375,-107.98 108,-107.98c30.125,-0 58.25,12.373 79.125,34.994l12.25,13.247l16.25,-8.123c49,-24.871 103.5,12.623 104.375,62.488l-2.75,24.121l24.875,1.875c41.5,3.124 73.875,37.993 73.875,79.235c0,44.117 -35.875,79.986 -80,79.986l-31.375,0c0.25,4.999 -9.875,10.123 -10.75,15.247c11.75,7.998 19.875,19.621 23.75,32.744l18.375,-0c70.625,0.125 128,-57.24 128,-127.852Zm-173.808,147.228c0.858,3.202 0.338,6.447 -1.197,9.106c-1.536,2.659 -4.086,4.731 -7.287,5.59l-15.731,4.215l16.482,9.515c5.737,3.313 7.705,10.656 4.392,16.393c-3.312,5.738 -10.655,7.704 -16.392,4.392l-16.482,-9.516l4.215,15.731c1.716,6.404 -2.081,12.98 -8.484,14.696c-6.404,1.715 -12.98,-2.082 -14.695,-8.485l-10.426,-38.911l-36.587,-21.123l-0,42.247l28.484,28.484c4.688,4.688 4.688,12.282 0,16.97c-2.344,2.343 -5.414,3.515 -8.484,3.515c-3.071,0 -6.141,-1.172 -8.485,-3.515l-11.515,-11.516l-0,19.031c-0,6.625 -5.375,12 -12,12c-6.625,0 -12,-5.375 -12,-12l-0,-19.031l-11.516,11.516c-4.687,4.687 -12.281,4.687 -16.969,-0c-4.687,-4.688 -4.687,-12.282 0,-16.97l28.485,-28.484l-0,-42.247l-36.587,21.123l-10.426,38.911c-1.716,6.404 -8.292,10.201 -14.695,8.485c-6.404,-1.716 -10.2,-8.293 -8.485,-14.696l4.215,-15.731l-16.481,9.516c-5.737,3.312 -13.08,1.346 -16.393,-4.392c-3.312,-5.738 -1.344,-13.08 4.393,-16.393l16.481,-9.515l-15.73,-4.215c-6.403,-1.716 -10.2,-8.292 -8.485,-14.695c1.716,-6.404 8.292,-10.201 14.696,-8.485l38.91,10.426l36.587,-21.124l-36.587,-21.123l-38.91,10.427c-6.404,1.716 -12.98,-2.082 -14.696,-8.485c-1.716,-6.402 2.082,-12.979 8.485,-14.695l15.73,-4.216l-16.481,-9.515c-5.737,-3.313 -7.705,-10.654 -4.393,-16.392c3.313,-5.738 10.656,-7.705 16.393,-4.392l16.481,9.515l-4.215,-15.731c-1.715,-6.402 2.082,-12.979 8.485,-14.695c6.403,-1.715 12.979,2.082 14.695,8.485l10.426,38.91l36.587,21.123l-0,-42.246l-28.485,-28.485c-4.687,-4.687 -4.687,-12.281 0,-16.969c4.688,-4.687 12.282,-4.687 16.969,0l11.516,11.516l-0,-19.031c-0,-6.625 5.375,-12 12,-12c6.625,-0 12,5.375 12,12l-0,19.031l11.515,-11.516c4.688,-4.687 12.282,-4.687 16.969,0c4.688,4.688 4.688,12.282 0,16.969l-28.484,28.485l-0,42.246l36.587,-21.123l10.426,-38.911c1.715,-6.403 8.292,-10.2 14.695,-8.484c3.201,0.857 5.752,2.931 7.287,5.59c1.535,2.659 2.055,5.903 1.197,9.105l-4.215,15.731l16.482,-9.516c5.737,-3.312 13.08,-1.345 16.392,4.393c3.313,5.738 1.345,13.079 -4.392,16.392l-16.482,9.515l15.731,4.216c6.403,1.716 10.2,8.292 8.484,14.695c-1.716,6.404 -8.292,10.201 -14.695,8.485l-38.91,-10.427l-36.587,21.123l36.587,21.124l38.91,-10.426c6.403,-1.716 12.979,2.082 14.695,8.485Z" style="fill-rule:nonzero;"/>
</svg>
