<?xml version="1.0" encoding="UTF-8" standalone="no"?>
<!DOCTYPE svg PUBLIC "-//W3C//DTD SVG 1.1//EN" "http://www.w3.org/Graphics/SVG/1.1/DTD/svg11.dtd">
<svg width="100%" height="100%" viewBox="0 0 576 512" version="1.1" xmlns="http://www.w3.org/2000/svg" xmlns:xlink="http://www.w3.org/1999/xlink" xml:space="preserve" xmlns:serif="http://www.serif.com/" style="fill-rule:evenodd;clip-rule:evenodd;stroke-linejoin:round;stroke-miterlimit:2;">
    <path d="M567.936,223.75c-70.375,13.375 -135.002,-40.25 -135.002,-110.75c0,-40.625 21.875,-78 57.502,-98.125c5.5,-3.125 4.125,-11.375 -2.125,-12.5c-8.627,-1.625 -17.502,-2.375 -26.502,-2.375c-63.823,0 -123.093,73.445 -142.329,130.47c33.296,6.793 63.353,46.159 67.794,78.055c32.653,14.166 48.702,26.413 61.056,56.376c1.35,3.273 5.26,18.076 5,21.55c4.844,0.52 9.494,1.424 14.479,1.424c44.627,0 79.502,-20.125 106.502,-53.25c4.25,-4.875 -0.125,-12 -6.375,-10.875Zm-122.49,90.237c0,-45.812 -32.093,-85.149 -75.497,-95.683c-7.347,-43.976 -45.628,-77.514 -91.545,-77.514c-9.86,0 -19.817,1.74 -29.388,5.026c-21.943,-19.33 -49.494,-29.768 -78.88,-29.768c-63.608,-0 -115.905,49.581 -120.352,112.114c-30.644,17.494 -49.784,49.969 -49.784,85.825c0,54.608 44.371,98.971 98.988,98.971l14.307,-0c2.9,-10.149 9.28,-19.137 18.367,-25.323c-0.773,-3.962 -8.604,-7.925 -8.41,-11.792l-24.264,0c-34.124,0 -61.867,-27.738 -61.867,-61.856c-0,-25.129 14.983,-47.552 38.377,-57.12l12.083,-4.929l-0.676,-13.144c-0.097,-1.064 -0.097,-2.127 -0.29,-2.127c-0,-46.006 37.41,-83.506 83.521,-83.506c23.297,0 45.047,9.569 61.191,27.063l9.473,10.244l12.567,-6.282c37.894,-19.234 80.041,9.762 80.718,48.325l-2.127,18.654l19.237,1.45c32.094,2.416 57.131,29.382 57.131,61.276c-0,34.117 -27.744,61.857 -61.868,61.857l-24.263,-0c0.193,3.865 -7.637,7.828 -8.314,11.791c9.087,6.185 15.37,15.174 18.367,25.322l14.21,0c54.618,0.097 98.988,-44.266 98.988,-98.874Zm-134.413,113.859c0.663,2.476 0.262,4.985 -0.926,7.042c-1.187,2.056 -3.159,3.659 -5.635,4.323l-12.165,3.259l12.746,7.359c4.437,2.562 5.958,8.24 3.397,12.677c-2.562,4.437 -8.24,5.958 -12.677,3.396l-12.746,-7.359l3.259,12.166c1.327,4.952 -1.609,10.038 -6.561,11.365c-4.952,1.326 -10.038,-1.61 -11.364,-6.562l-8.063,-30.092l-28.295,-16.335l0,32.672l22.029,22.028c3.625,3.625 3.625,9.498 -0,13.123c-1.813,1.812 -4.187,2.718 -6.562,2.718c-2.374,0 -4.749,-0.906 -6.561,-2.718l-8.906,-8.906l0,14.718c0,5.123 -4.156,9.28 -9.28,9.28c-5.123,-0 -9.28,-4.157 -9.28,-9.28l0,-14.718l-8.905,8.906c-3.625,3.625 -9.498,3.625 -13.123,-0c-3.625,-3.625 -3.625,-9.498 -0,-13.123l22.028,-22.028l0,-32.672l-28.294,16.335l-8.063,30.092c-1.327,4.952 -6.412,7.889 -11.364,6.562c-4.953,-1.328 -7.889,-6.413 -6.562,-11.365l3.26,-12.166l-12.746,7.359c-4.437,2.562 -10.116,1.041 -12.677,-3.396c-2.562,-4.437 -1.04,-10.115 3.397,-12.677l12.746,-7.359l-12.166,-3.259c-4.951,-1.328 -7.888,-6.413 -6.561,-11.365c1.327,-4.952 6.413,-7.888 11.365,-6.561l30.091,8.062l28.294,-16.336l-28.294,-16.335l-30.091,8.063c-4.952,1.327 -10.038,-1.609 -11.365,-6.561c-1.327,-4.952 1.61,-10.038 6.561,-11.365l12.166,-3.26l-12.746,-7.359c-4.437,-2.562 -5.959,-8.239 -3.397,-12.676c2.561,-4.437 8.24,-5.959 12.677,-3.397l12.746,7.359l-3.26,-12.165c-1.327,-4.952 1.61,-10.038 6.562,-11.365c4.951,-1.326 10.037,1.61 11.364,6.561l8.063,30.092l28.294,16.335l0,-32.671l-22.028,-22.028c-3.625,-3.625 -3.625,-9.498 -0,-13.123c3.625,-3.625 9.498,-3.625 13.123,0l8.905,8.905l0,-14.717c0,-5.123 4.157,-9.28 9.28,-9.28c5.124,-0 9.28,4.157 9.28,9.28l0,14.717l8.906,-8.905c3.625,-3.625 9.498,-3.625 13.123,0c3.625,3.625 3.625,9.498 -0,13.123l-22.029,22.028l0,32.671l28.295,-16.335l8.063,-30.092c1.326,-4.951 6.412,-7.888 11.364,-6.561c2.476,0.663 4.448,2.267 5.635,4.323c1.187,2.056 1.589,4.565 0.926,7.042l-3.259,12.165l12.746,-7.359c4.437,-2.562 10.115,-1.04 12.677,3.397c2.561,4.437 1.04,10.114 -3.397,12.676l-12.746,7.359l12.165,3.26c4.952,1.327 7.888,6.413 6.561,11.365c-1.327,4.952 -6.412,7.888 -11.364,6.561l-30.091,-8.063l-28.295,16.335l28.295,16.336l30.091,-8.062c4.952,-1.327 10.037,1.609 11.364,6.561Z" style="fill-rule:nonzero;"/>
</svg>
