<?xml version="1.0" encoding="UTF-8" standalone="no"?>
<!DOCTYPE svg PUBLIC "-//W3C//DTD SVG 1.1//EN" "http://www.w3.org/Graphics/SVG/1.1/DTD/svg11.dtd">
<svg width="100%" height="100%" viewBox="0 0 570 502" version="1.1" xmlns="http://www.w3.org/2000/svg" xmlns:xlink="http://www.w3.org/1999/xlink" xml:space="preserve" xmlns:serif="http://www.serif.com/" style="fill-rule:evenodd;clip-rule:evenodd;stroke-linejoin:round;stroke-miterlimit:2;">
    <path d="M561.936,223.75c-70.375,13.375 -135.002,-40.25 -135.002,-110.75c0,-40.625 21.875,-78 57.502,-98.125c5.5,-3.125 4.125,-11.375 -2.125,-12.5c-8.627,-1.625 -17.502,-2.375 -26.502,-2.375c-63.823,0 -123.093,73.445 -142.329,130.47c33.296,6.793 63.353,46.159 67.794,78.055c32.653,14.166 48.702,26.413 61.056,56.376c1.35,3.273 5.26,18.076 5,21.55c4.844,0.52 9.494,1.424 14.479,1.424c44.627,0 79.502,-20.125 106.502,-53.25c4.25,-4.875 -0.125,-12 -6.375,-10.875Zm-191.158,-7.299c0.086,-1.491 0.445,-2.902 0.445,-4.415c-0,-42.208 -34.218,-76.425 -76.426,-76.425c-7.783,-0 -15.144,1.506 -22.219,3.669c-20.849,-28.572 -54.342,-47.341 -92.419,-47.341c-63.596,0 -115.039,51.811 -114.583,115.179c-38.107,13.521 -65.562,49.52 -65.562,92.262c-0,54.268 43.993,98.261 98.261,98.261l245.653,-0c51.253,-0 92.802,-41.55 92.802,-92.802c-0,-41.852 -27.885,-76.816 -65.952,-88.388Zm-26.85,148.436l-245.653,0c-36.122,0 -65.508,-29.387 -65.508,-65.507c0,-27.434 17.586,-52.106 43.761,-61.394l21.965,-7.794c-0.186,-26.355 -0.153,-22.618 -0.2,-25.364c0.934,-44.348 37.299,-80.135 81.866,-80.135c26.2,-0 50.242,12.354 65.959,33.893l13.741,18.832l22.295,-6.816c33.342,-10.195 57.473,17.441 55.924,43.945l-1.497,25.741l24.67,7.5c25.555,7.768 42.725,30.695 42.725,57.051c0,33.11 -26.938,60.048 -60.048,60.048Zm-181.854,108.535l-66.681,0c-7.859,0 -14.289,6.43 -14.289,14.289c-0,7.859 6.43,14.289 14.289,14.289l66.681,0c7.859,0 14.289,-6.43 14.289,-14.289c-0,-7.859 -6.43,-14.289 -14.289,-14.289Zm247.674,0l-190.518,0c-7.859,0 -14.289,6.43 -14.289,14.289c-0,7.859 6.43,14.289 14.289,14.289l190.518,0c7.859,0 14.289,-6.43 14.289,-14.289c0,-7.859 -6.43,-14.289 -14.289,-14.289Zm-23.815,-38.103c0,-7.859 -6.43,-14.289 -14.289,-14.289l-314.355,-0c-7.859,-0 -14.289,6.43 -14.289,14.289c0,7.858 6.43,14.288 14.289,14.288l314.355,0c7.859,0 14.289,-6.43 14.289,-14.288Z" style="fill-rule:nonzero;"/>
</svg>
