<?xml version="1.0" encoding="UTF-8" standalone="no"?>
<!DOCTYPE svg PUBLIC "-//W3C//DTD SVG 1.1//EN" "http://www.w3.org/Graphics/SVG/1.1/DTD/svg11.dtd">
<svg width="100%" height="100%" viewBox="0 0 512 512" version="1.1" xmlns="http://www.w3.org/2000/svg" xmlns:xlink="http://www.w3.org/1999/xlink" xml:space="preserve" xmlns:serif="http://www.serif.com/" style="fill-rule:evenodd;clip-rule:evenodd;stroke-linejoin:round;stroke-miterlimit:2;">
    <g id="compass">
        <path id="outline" d="M256,0C397.29,0 512,114.71 512,256C512,397.29 397.29,512 256,512C114.71,512 0,397.29 0,256C0,114.71 114.71,0 256,0ZM256,33.719C378.68,33.719 478.281,133.32 478.281,256C478.281,378.68 378.68,478.281 256,478.281C133.32,478.281 33.719,378.68 33.719,256C33.719,133.32 133.32,33.719 256,33.719Z" style="fill:white;stroke:black;"/>
        <path id="pointer" d="M250.252,55.959C251.012,53.419 253.349,51.68 256,51.68C258.651,51.68 260.988,53.419 261.748,55.959C273.761,96.099 301.139,217.574 309.893,246.825C311.685,252.81 311.685,259.19 309.893,265.175C301.139,294.426 273.761,415.901 261.748,456.041C260.988,458.581 258.651,460.32 256,460.32C253.349,460.32 251.012,458.581 250.252,456.041C238.239,415.901 210.861,294.426 202.107,265.175C200.315,259.19 200.315,252.81 202.107,246.825C212.691,211.461 250.252,55.959 250.252,55.959ZM256,226.156C272.471,226.156 285.844,239.529 285.844,256C285.844,272.471 272.471,285.844 256,285.844C239.529,285.844 226.156,272.471 226.156,256C226.156,239.529 239.529,226.156 256,226.156Z" style="fill:white;stroke:black;stroke-linecap:round;stroke-miterlimit:1.5;"/>
        <path id="tip" d="M237.671,107.59C244.902,78.107 250.252,55.959 250.252,55.959C251.012,53.419 253.349,51.68 256,51.68C258.651,51.68 260.988,53.419 261.748,55.959C265.255,67.676 270.071,86.323 275.351,107.59L237.671,107.59Z" style="fill:rgb(255,0,0);stroke:black;stroke-linecap:round;stroke-miterlimit:1.5;"/>
    </g>
</svg>
