<?xml version="1.0" encoding="UTF-8" standalone="no"?>
<!DOCTYPE svg PUBLIC "-//W3C//DTD SVG 1.1//EN" "http://www.w3.org/Graphics/SVG/1.1/DTD/svg11.dtd">
<svg width="100%" height="100%" viewBox="0 0 518 518" version="1.1" xmlns="http://www.w3.org/2000/svg" xmlns:xlink="http://www.w3.org/1999/xlink" xml:space="preserve" xmlns:serif="http://www.serif.com/" style="fill-rule:evenodd;clip-rule:evenodd;stroke-linecap:round;stroke-linejoin:round;stroke-miterlimit:1.5;">
    <g id="compass">
        <path id="outline" d="M259,3c141.29,0 256,114.71 256,256c0,141.29 -114.71,256 -256,256c-141.29,0 -256,-114.71 -256,-256c0,-141.29 114.71,-256 256,-256Zm0,25.6c127.161,0 230.4,103.239 230.4,230.4c-0,127.161 -103.239,230.4 -230.4,230.4c-127.161,-0 -230.4,-103.239 -230.4,-230.4c0,-127.161 103.239,-230.4 230.4,-230.4Z" style="fill:#fff;stroke:#000;fill-rule:evenodd;"/>
        <path id="pointer" d="M253.252,58.959c0.76,-2.54 3.097,-4.279 5.748,-4.279c2.651,-0 4.988,1.739 5.748,4.279c12.013,40.14 39.391,161.615 48.145,190.866c1.792,5.985 1.792,12.365 0,18.35c-8.754,29.251 -36.132,150.726 -48.145,190.866c-0.76,2.54 -3.097,4.279 -5.748,4.279c-2.651,0 -4.988,-1.739 -5.748,-4.279c-12.013,-40.14 -39.391,-161.615 -48.145,-190.866c-1.792,-5.985 -1.792,-12.365 -0,-18.35c10.584,-35.364 48.145,-190.866 48.145,-190.866Zm5.748,170.197c16.471,-0 29.844,13.373 29.844,29.844c0,16.471 -13.373,29.844 -29.844,29.844c-16.471,0 -29.844,-13.373 -29.844,-29.844c-0,-16.471 13.373,-29.844 29.844,-29.844Z" style="fill:#fff;stroke:#000;"/>
        <path id="tip" d="M240.671,110.59c7.231,-29.483 12.581,-51.631 12.581,-51.631c0.76,-2.54 3.097,-4.279 5.748,-4.279c2.651,-0 4.988,1.739 5.748,4.279c3.507,11.717 8.323,30.364 13.603,51.631l-37.68,0Z" style="fill:#f00;stroke:#000;"/>
    </g>
</svg>
